M48
; DRILL file {KiCad (5.1.6)-1} date 11/23/20 11:28:09
; FORMAT={-:-/ absolute / inch / decimal}
; #@! TF.CreationDate,2020-11-23T11:28:09-06:00
; #@! TF.GenerationSoftware,Kicad,Pcbnew,(5.1.6)-1
FMAT,2
INCH
T1C0.0315
T2C0.0354
T3C0.0400
T4C0.0591
T5C0.0315
T6C0.0669
T7C0.1201
T8C0.1260
T9C0.1575
%
G90
G05
T1
X9.0Y-3.425
X9.0Y-3.725
X8.2Y-3.425
X8.2Y-3.725
X2.25Y-1.85
X2.25Y-2.15
X3.4Y-3.425
X3.4Y-3.725
X1.25Y-1.85
X1.25Y-2.15
X10.525Y-3.425
X10.525Y-3.725
X5.525Y-2.625
X5.525Y-2.925
X11.125Y-1.125
X11.125Y-1.425
X13.1Y-4.225
X13.1Y-4.525
X8.175Y-1.6
X8.175Y-1.9
X8.025Y-1.125
X8.025Y-1.425
X10.35Y-1.125
X10.35Y-1.425
X14.075Y-4.225
X14.075Y-4.525
X3.45Y-1.075
X3.45Y-1.375
X3.025Y-4.2
X3.025Y-4.5
X4.775Y-2.625
X4.775Y-2.925
X12.1Y-3.425
X12.1Y-3.725
X13.475Y-1.125
X13.475Y-1.425
X11.2Y-4.225
X11.2Y-4.525
X8.4Y-1.9
X8.4Y-2.2
X4.9Y-4.2
X4.9Y-4.5
X9.975Y-1.9
X9.975Y-2.2
X4.2Y-3.425
X4.2Y-3.725
X3.975Y-2.625
X3.975Y-2.925
X13.35Y-2.675
X13.35Y-2.975
X1.3Y-2.625
X1.3Y-2.925
X12.675Y-1.125
X12.675Y-1.425
X12.275Y-1.9
X12.275Y-2.2
X11.9Y-1.125
X11.9Y-1.425
X9.375Y-2.675
X9.375Y-2.975
X8.8Y-1.125
X8.8Y-1.425
X3.825Y-1.85
X3.825Y-2.15
X9.575Y-1.125
X9.575Y-1.425
X4.2Y-1.075
X4.2Y-1.375
X1.1Y-1.075
X1.1Y-1.375
X2.625Y-3.425
X2.625Y-3.725
X13.125Y-3.425
X13.125Y-3.725
X4.925Y-3.425
X4.925Y-3.725
X13.05Y-1.9
X13.05Y-2.2
X12.15Y-4.225
X12.15Y-4.525
X4.6Y-1.85
X4.6Y-2.15
X11.35Y-3.425
X11.35Y-3.725
X10.175Y-2.675
X10.175Y-2.975
X1.875Y-1.075
X1.875Y-1.375
X10.725Y-1.9
X10.725Y-2.2
X2.65Y-1.075
X2.65Y-1.375
X1.2Y-3.25
X1.2Y-3.55
X4.975Y-1.075
X4.975Y-1.375
X13.95Y-1.9
X13.95Y-2.2
X6.35Y-2.65
X6.65Y-2.65
X11.725Y-2.675
X11.725Y-2.975
X9.775Y-3.425
X9.775Y-3.725
X2.425Y-2.625
X2.425Y-2.925
X3.175Y-2.625
X3.175Y-2.925
X1.175Y-4.2
X1.175Y-4.5
X6.35Y-2.525
X6.65Y-2.525
X12.5Y-2.675
X12.5Y-2.975
X11.475Y-1.9
X11.475Y-2.2
X8.05Y-1.6
X8.05Y-1.9
X9.175Y-1.9
X9.175Y-2.2
X8.625Y-2.675
X8.625Y-2.975
X2.15Y-4.2
X2.15Y-4.5
X3.025Y-1.85
X3.025Y-2.15
X5.375Y-1.85
X5.375Y-2.15
X9.45Y-4.225
X9.45Y-4.525
X10.95Y-2.675
X10.95Y-2.975
T3
X7.25Y-0.925
X7.25Y-1.025
X7.25Y-1.125
X7.25Y-1.225
X7.25Y-1.325
X7.25Y-1.425
X7.25Y-1.525
X7.25Y-1.625
X7.25Y-1.725
X7.25Y-1.825
X7.25Y-1.925
X7.25Y-2.025
X7.85Y-0.925
X7.85Y-1.025
X7.85Y-1.125
X7.85Y-1.225
X7.85Y-1.325
X7.85Y-1.425
X7.85Y-1.525
X7.85Y-1.625
X7.85Y-1.725
X7.85Y-1.825
X7.85Y-1.925
X7.85Y-2.025
X6.225Y-0.9
X6.225Y-1.0
X6.225Y-1.1
X6.225Y-1.2
X6.225Y-1.3
X6.225Y-1.4
X6.225Y-1.5
X6.225Y-1.6
X6.225Y-1.7
X6.225Y-1.8
X6.225Y-1.9
X6.225Y-2.0
X6.825Y-0.9
X6.825Y-1.0
X6.825Y-1.1
X6.825Y-1.2
X6.825Y-1.3
X6.825Y-1.4
X6.825Y-1.5
X6.825Y-1.6
X6.825Y-1.7
X6.825Y-1.8
X6.825Y-1.9
X6.825Y-2.0
T4
X1.675Y-3.3
X1.925Y-3.2
X10.75Y-3.325
X11.0Y-3.225
X9.6Y-2.55
X9.85Y-2.45
X4.95Y-2.525
X5.2Y-2.425
X4.175Y-2.525
X4.425Y-2.425
X9.0Y-1.0
X9.25Y-0.9
X2.825Y-3.3
X3.075Y-3.2
X2.85Y-0.975
X3.1Y-0.875
X14.2Y-1.775
X14.45Y-1.675
X10.925Y-1.775
X11.175Y-1.675
X11.15Y-2.55
X11.4Y-2.45
X1.4Y-4.1
X1.65Y-4.0
X5.175Y-0.975
X5.425Y-0.875
X1.3Y-0.975
X1.55Y-0.875
X13.25Y-1.775
X13.5Y-1.675
X11.525Y-3.325
X11.775Y-3.225
X3.625Y-0.975
X3.875Y-0.875
X2.375Y-4.1
X2.625Y-4.0
X2.075Y-0.975
X2.325Y-0.875
X3.6Y-3.3
X3.85Y-3.2
X14.025Y-1.0
X14.275Y-0.9
X9.775Y-1.0
X10.025Y-0.9
X9.975Y-3.325
X10.225Y-3.225
X4.8Y-1.75
X5.05Y-1.65
X5.725Y-2.525
X5.975Y-2.425
X2.475Y-1.75
X2.725Y-1.65
X12.3Y-3.325
X12.55Y-3.225
X12.375Y-4.1
X12.625Y-4.0
X11.425Y-4.1
X11.675Y-4.0
X3.25Y-1.75
X3.5Y-1.65
X13.325Y-4.1
X13.575Y-4.0
X10.55Y-1.0
X10.8Y-0.9
X1.575Y-2.525
X1.825Y-2.425
X3.4Y-2.525
X3.65Y-2.425
X12.1Y-1.0
X12.35Y-0.9
X8.6Y-1.775
X8.85Y-1.675
X11.325Y-1.0
X11.575Y-0.9
X5.15Y-4.075
X5.4Y-3.975
X5.15Y-3.3
X5.4Y-3.2
X11.925Y-2.55
X12.175Y-2.45
X13.925Y-2.55
X14.175Y-2.45
X8.825Y-2.55
X9.075Y-2.45
X12.475Y-1.775
X12.725Y-1.675
X4.375Y-3.3
X4.625Y-3.2
X12.7Y-2.55
X12.95Y-2.45
X9.725Y-4.1
X9.975Y-4.0
X14.3Y-4.1
X14.55Y-4.0
X1.5Y-1.75
X1.75Y-1.65
X12.875Y-1.0
X13.125Y-0.9
X2.625Y-2.525
X2.875Y-2.425
X10.375Y-2.55
X10.625Y-2.45
X3.35Y-4.1
X3.6Y-4.0
X4.025Y-1.75
X4.275Y-1.65
X13.725Y-3.325
X13.975Y-3.225
X9.375Y-1.775
X9.625Y-1.675
X5.575Y-1.75
X5.825Y-1.65
X10.15Y-1.775
X10.4Y-1.675
X9.2Y-3.325
X9.45Y-3.225
X4.4Y-0.975
X4.65Y-0.875
X8.225Y-1.0
X8.475Y-0.9
X11.7Y-1.775
X11.95Y-1.675
X8.425Y-3.325
X8.675Y-3.225
T5
X6.5864Y-2.225
X6.862Y-2.225
X7.188Y-2.225
X7.4636Y-2.225
T6
X3.975Y-1.85
X4.375Y-1.85
X13.675Y-3.425
X14.075Y-3.425
X9.325Y-1.875
X9.725Y-1.875
X5.525Y-1.85
X5.925Y-1.85
X10.1Y-1.875
X10.5Y-1.875
X9.15Y-3.425
X9.55Y-3.425
X4.35Y-1.075
X4.75Y-1.075
X8.175Y-1.1
X8.575Y-1.1
X11.65Y-1.875
X12.05Y-1.875
X8.375Y-3.425
X8.775Y-3.425
X1.625Y-3.4
X2.025Y-3.4
X10.7Y-3.425
X11.1Y-3.425
X9.55Y-2.65
X9.95Y-2.65
X4.9Y-2.625
X5.3Y-2.625
X4.125Y-2.625
X4.525Y-2.625
X8.95Y-1.1
X9.35Y-1.1
X2.775Y-3.4
X3.175Y-3.4
X2.8Y-1.075
X3.2Y-1.075
X14.15Y-1.875
X14.55Y-1.875
X10.875Y-1.875
X11.275Y-1.875
X11.1Y-2.65
X11.5Y-2.65
X1.35Y-4.2
X1.75Y-4.2
X5.125Y-1.075
X5.525Y-1.075
X1.25Y-1.075
X1.65Y-1.075
X13.2Y-1.875
X13.6Y-1.875
X11.475Y-3.425
X11.875Y-3.425
X3.575Y-1.075
X3.975Y-1.075
X2.325Y-4.2
X2.725Y-4.2
X2.025Y-1.075
X2.425Y-1.075
X3.55Y-3.4
X3.95Y-3.4
X13.975Y-1.1
X14.375Y-1.1
X9.725Y-1.1
X10.125Y-1.1
X9.925Y-3.425
X10.325Y-3.425
X4.75Y-1.85
X5.15Y-1.85
X5.675Y-2.625
X6.075Y-2.625
X2.425Y-1.85
X2.825Y-1.85
X12.25Y-3.425
X12.65Y-3.425
X12.325Y-4.2
X12.725Y-4.2
X11.375Y-4.2
X11.775Y-4.2
X3.2Y-1.85
X3.6Y-1.85
X13.275Y-4.2
X13.675Y-4.2
X10.5Y-1.1
X10.9Y-1.1
X1.525Y-2.625
X1.925Y-2.625
X3.35Y-2.625
X3.75Y-2.625
X12.05Y-1.1
X12.45Y-1.1
X8.55Y-1.875
X8.95Y-1.875
X11.275Y-1.1
X11.675Y-1.1
X5.1Y-4.175
X5.5Y-4.175
X5.1Y-3.4
X5.5Y-3.4
X11.875Y-2.65
X12.275Y-2.65
X13.875Y-2.65
X14.275Y-2.65
X8.775Y-2.65
X9.175Y-2.65
X12.425Y-1.875
X12.825Y-1.875
X4.325Y-3.4
X4.725Y-3.4
X12.65Y-2.65
X13.05Y-2.65
X9.675Y-4.2
X10.075Y-4.2
X14.25Y-4.2
X14.65Y-4.2
X1.45Y-1.85
X1.85Y-1.85
X12.825Y-1.1
X13.225Y-1.1
X2.575Y-2.625
X2.975Y-2.625
X10.325Y-2.65
X10.725Y-2.65
X3.3Y-4.2
X3.7Y-4.2
T7
X13.6065Y-2.3744
X14.5435Y-2.3744
X13.4065Y-3.1494
X14.3435Y-3.1494
X1.3565Y-3.1244
X2.2935Y-3.1244
X13.7065Y-0.8244
X14.6435Y-0.8244
T8
X14.7Y-3.45
X5.95Y-3.25
X5.925Y-1.05
X4.425Y-4.25
X10.675Y-4.225
X2.025Y-3.925
X8.875Y-4.25
X7.775Y-2.925
X1.2Y-1.625
X14.7Y-1.1
T9
X1.3565Y-3.7244
X1.825Y-3.4
X2.2935Y-3.7244
X10.9Y-3.425
X9.75Y-2.65
X5.1Y-2.625
X4.325Y-2.625
X9.15Y-1.1
X2.975Y-3.4
X3.0Y-1.075
X14.35Y-1.875
X11.075Y-1.875
X11.3Y-2.65
X1.55Y-4.2
X5.325Y-1.075
X1.45Y-1.075
X13.4Y-1.875
X11.675Y-3.425
X3.775Y-1.075
X2.525Y-4.2
X2.225Y-1.075
X3.75Y-3.4
X13.7065Y-1.4244
X14.175Y-1.1
X14.6435Y-1.4244
X9.925Y-1.1
X10.125Y-3.425
X4.95Y-1.85
X5.875Y-2.625
X2.625Y-1.85
X12.45Y-3.425
X12.525Y-4.2
X11.575Y-4.2
X3.4Y-1.85
X13.475Y-4.2
X10.7Y-1.1
X1.725Y-2.625
X3.55Y-2.625
X12.25Y-1.1
X8.75Y-1.875
X11.475Y-1.1
X5.3Y-4.175
X5.3Y-3.4
X12.075Y-2.65
X13.6065Y-2.9744
X14.075Y-2.65
X14.5435Y-2.9744
X8.975Y-2.65
X12.625Y-1.875
X4.525Y-3.4
X12.85Y-2.65
X9.875Y-4.2
X14.45Y-4.2
X1.65Y-1.85
X13.025Y-1.1
X2.775Y-2.625
X10.525Y-2.65
X3.5Y-4.2
X4.175Y-1.85
X13.4065Y-3.7494
X13.875Y-3.425
X14.3435Y-3.7494
X9.525Y-1.875
X5.725Y-1.85
X10.3Y-1.875
X9.35Y-3.425
X4.55Y-1.075
X8.375Y-1.1
X11.85Y-1.875
X8.575Y-3.425
T2
G00X6.488Y-2.1344
M15
G01X6.4722Y-2.1344
M16
G05
G00X6.5313Y-2.3156
M15
G01X6.5156Y-2.3156
M16
G05
G00X6.6888Y-2.3156
M15
G01X6.673Y-2.3156
M16
G05
G00X6.8069Y-2.3156
M15
G01X6.7911Y-2.3156
M16
G05
G00X7.2431Y-2.1344
M15
G01X7.2589Y-2.1344
M16
G05
G00X7.3612Y-2.1344
M15
G01X7.377Y-2.1344
M16
G05
G00X7.5187Y-2.1344
M15
G01X7.5344Y-2.1344
M16
G05
G00X7.562Y-2.3156
M15
G01X7.5778Y-2.3156
M16
G05
T0
M30
